<?xml version="1.0" encoding="UTF-8"?><!DOCTYPE svg PUBLIC "-//W3C//DTD SVG 1.1//EN" "http://www.w3.org/Graphics/SVG/1.1/DTD/svg11.dtd"><svg xmlns="http://www.w3.org/2000/svg" xmlns:xlink="http://www.w3.org/1999/xlink"><defs>
<clipPath id="clip0">
<rect width="8.25" height="9" fill="white" transform="translate(0 9.0249) rotate(-90)"/>
</clipPath>
<clipPath id="clip0"><path fill="#fff" transform="translate(.192 .378)" d="M0 0h12.255v11.635H0z"/></clipPath><clipPath id="clip0"><path fill="#fff" transform="translate(0 .262)" d="M0 0h18v17.708H0z"/></clipPath>
<clipPath id="clip0">
<rect width="12.2553" height="12.2849" fill="white" transform="translate(9.19153 9.70624)"/>
</clipPath>
</defs><symbol id="arrow-back" viewBox="0 0 15 21">
<g opacity="0.3">
<path d="M11.8116 1.40061C11.713 1.28894 11.5958 1.20035 11.4668 1.1399C11.3378 1.07945 11.1994 1.04834 11.0598 1.04834C10.9201 1.04834 10.7818 1.07945 10.6528 1.1399C10.5238 1.20035 10.4066 1.28894 10.3079 1.40061L3.24844 9.37194C3.16968 9.46069 3.1072 9.5661 3.06457 9.68214C3.02194 9.79818 3 9.92258 3 10.0482C3 10.1738 3.02194 10.2982 3.06457 10.4143C3.1072 10.5303 3.16968 10.6357 3.24844 10.7245L10.3079 18.6958C10.7242 19.1658 11.3953 19.1658 11.8116 18.6958C12.2279 18.2258 11.883 17.7322 11.4668 17.2622L7.74854 13.0836L5.12914 10.0172L11.8207 2.30298C11.8207 2.30298 12.2279 1.86105 11.8116 1.40061Z" fill="black"/>
</g>
</symbol><symbol id="arrow-down" viewBox="0 0 12 16">
<g opacity="0.3">
<path d="M0.63847 5.09805C0.56899 5.17667 0.513866 5.27006 0.476254 5.37289C0.438641 5.47571 0.419281 5.58595 0.419281 5.69727C0.419281 5.8086 0.438641 5.91883 0.476254 6.02165C0.513866 6.12448 0.56899 6.21787 0.63847 6.29649L5.59841 11.9231C5.65363 11.9859 5.71922 12.0357 5.79142 12.0696C5.86363 12.1036 5.94103 12.1211 6.0192 12.1211C6.09737 12.1211 6.17478 12.1036 6.24698 12.0696C6.31918 12.0357 6.38477 11.9859 6.43999 11.9231L11.3999 6.29649C11.6924 5.96472 11.6924 5.42982 11.3999 5.09805C11.1075 4.76628 10.8004 5.04112 10.5079 5.37289L7.9079 8.3364L5.99993 10.4241L1.19995 5.09079C1.19995 5.09079 0.924965 4.76628 0.63847 5.09805Z" fill="black"/>
</g>
</symbol><symbol id="arrow-next" viewBox="0 0 14 21">
<g opacity="0.3">
<path d="M3.06949 19.3693C3.16815 19.481 3.28536 19.5695 3.41439 19.63C3.54343 19.6904 3.68176 19.7216 3.82146 19.7216C3.96117 19.7216 4.0995 19.6904 4.22853 19.63C4.35757 19.5695 4.47477 19.481 4.57344 19.3693L11.6343 11.398C11.7131 11.3092 11.7756 11.2038 11.8182 11.0878C11.8609 10.9717 11.8828 10.8473 11.8828 10.7217C11.8828 10.5961 11.8609 10.4717 11.8182 10.3556C11.7756 10.2396 11.7131 10.1342 11.6343 10.0454L4.57344 2.07408C4.15709 1.60405 3.48584 1.60405 3.06949 2.07408C2.65314 2.54411 3.32374 3.3591 3.74009 3.82913L9.82453 10.7217L3.41439 17.972C3.00654 18.4324 2.65314 18.9089 3.06949 19.3693Z" fill="black"/>
</g>
</symbol><symbol id="business-rates-link">
  <circle cx="34" cy="34" r="34" fill="#E2E5F2"/>
  <path fill="#132576" d="M43.38 43.24V39.9a5.84 5.84 0 00-2.81-5.09c-.94-.67-2.95-.8-3.9-.8l-2.13 2.28.8 1.74v4.02L34 43.5l-1.34-1.47v-4.02l.94-1.74L31.32 34c-1.07 0-3.08.13-4.02.8a5.53 5.53 0 00-2 2.28 5.15 5.15 0 00-.68 2.81v3.35s3.49 1.48 9.38 1.48c5.9 0 9.38-1.48 9.38-1.48zM34 23.42c-2.54 0-4.02 2.41-3.62 5.09.4 2.68 1.74 4.55 3.62 4.55 1.88 0 3.21-1.87 3.62-4.55.4-2.81-1.08-5.1-3.62-5.1z"/>
</symbol><symbol id="checkbox-checked-hover" viewBox="0 0 36 36">
<rect x="0.5" y="0.5" width="35" height="35" rx="3.5" stroke="#959BB2"/>
<path d="M16.3868 24.1809L13 20.5V20V19C13 19.0409 13 18.9591 13 19C13 18.7852 13.0001 18.5 13.0001 18.5V17.5L16.3774 20.7561C16.4931 20.8776 16.6816 20.8761 16.7974 20.7547L24.0001 13V15.0727V16C24.0001 16.5 24.0001 16.5 24.0001 16.5L17.8084 23.1208L17.8097 23.1222L16.8068 24.1795C16.691 24.3009 16.5026 24.3009 16.3868 24.1809Z" fill="#161C35"/>
</symbol><symbol id="checkbox-checked" viewBox="0 0 26 26">
<rect x="0.5" y="0.5" width="25" height="25" rx="3.5" stroke="#CBCED9"/>
<path d="M11.8348 17.4639L9.38882 14.8055V14.4443V13.7221C9.38882 13.7517 9.38882 13.6926 9.38882 13.7221C9.38882 13.567 9.38887 13.361 9.38887 13.361V12.6388L11.828 14.9905C11.9116 15.0781 12.0478 15.0771 12.1314 14.9894L17.3333 9.38879V10.8858V11.5555C17.3333 11.9166 17.3333 11.9166 17.3333 11.9166L12.8616 16.6982L12.8625 16.6992L12.1382 17.4629C12.0546 17.5506 11.9185 17.5506 11.8348 17.4639Z" fill="#161C35"/>
</symbol><symbol id="checkbox-hover" viewBox="0 0 36 36">
<rect x="0.5" y="0.5" width="35" height="35" rx="3.5" stroke="#959BB2"/>
</symbol><symbol id="checkbox" viewBox="0 0 26 26">
<rect x="0.5" y="0.5" width="25" height="25" rx="3.5" stroke="#CBCED9"/>
</symbol><symbol id="filter-checkbox-checked" viewBox="0 0 18 18">
<rect width="18" height="18" rx="4" fill="white"/>
<path d="M7.79009 12.8857L5.25 10.125V9.75V9C5.25 9.0307 5.25 8.9693 5.25 9C5.25 8.83887 5.25005 8.625 5.25005 8.625V7.875L7.78302 10.3171C7.86985 10.4082 8.01121 10.4071 8.09804 10.3161L13.5 4.5V6.05454V6.75C13.5 7.125 13.5 7.125 13.5 7.125L8.8563 12.0906L8.85731 12.0916L8.10511 12.8847C8.01827 12.9757 7.87692 12.9757 7.79009 12.8857Z" fill="#161C35"/>
</symbol><symbol id="filter-checkbox" viewBox="0 0 18 18">
<rect width="18" height="18" rx="4" fill="white"/>
</symbol><symbol id="htmlacademy" viewBox="0 0 27 34">
<path d="M13.6426 0.0157537L13.5 0L0 1.40733V26.0129L13.5 34L27 26.0129V1.40733L13.6426 0.0157537ZM25.2344 25.0151L13.5 31.9573L1.76561 25.0151V14.9293L13.4507 21.8451L13.4701 23.0984L5.45351 18.3548L5.44295 19.5801L13.4894 24.3885L13.5088 25.675L5.46408 20.9174L5.45351 22.1427L13.5 26.9511L21.6239 22.1182V20.8929V16.909L25.2432 14.7595L25.2344 25.0151ZM25.2344 13.4519L22.0147 15.3319L20.5325 16.2071L13.4666 12.0201L13.456 13.2454L19.4957 16.818L19.4429 16.8495L19.3126 16.9247L18.4536 17.4166L13.4666 14.4689L13.456 15.6942L17.3921 18.0222L16.4591 18.6314L16.438 18.6436L13.4666 16.902L13.456 18.1273L15.4029 19.2615L13.4155 20.4483L1.7973 13.5762L13.4349 6.61831L25.2344 13.4519ZM25.2344 12.2266L13.4401 5.31075L1.76561 12.2196V2.9897L13.5 1.76442L25.2344 2.9897V12.2266Z" fill="#192144"/>
</symbol><symbol id="icon-arrow-down" viewBox="0 0 10 5">
<path d="M5 5L0.669872 0.5L9.33013 0.5L5 5Z" fill="#192144"/>
</symbol><symbol id="icon-arrow-right">
  <path fill="#1D2E5B" d="M10.0698 6.07495L.157238 11.7041V.445786L10.0698 6.07495z"/>
</symbol><symbol id="icon-arrow-show-more-left" viewBox="0 0 10 18">
<path d="M0 9L9.75 0.339745L9.75 17.6603L0 9Z" fill="#1D2E5B"/>
</symbol><symbol id="icon-arrow-up" viewBox="0 0 10 5">
<path d="M5 0L9.33013 4.5H0.669873L5 0Z" fill="#192144"/>
</symbol><symbol id="icon-back-to-index" viewBox="0 0 32 16">
<path fill-rule="evenodd" clip-rule="evenodd" d="M4 16H28C30.2091 16 32 14.2091 32 12V7C32 4.79086 30.2091 3 28 3H4V5H28C29.1046 5 30 5.89543 30 7V12C30 13.1046 29.1046 14 28 14H4V16Z" fill="white"/>
<path d="M0 4L9 0.535898V7.4641L0 4Z" fill="white"/>
</symbol><symbol id="icon-call" viewBox="0 0 19 19">
<path d="M9.77429 8.22389C9.77429 8.41289 9.92792 8.56139 10.1157 8.56139C10.5048 8.56139 10.8189 8.87526 10.8189 9.25664C10.8189 9.44226 10.9725 9.59414 11.1603 9.59414C11.348 9.59414 11.5017 9.44226 11.5017 9.25664C11.5017 8.50064 10.8804 7.88639 10.1157 7.88639C9.92792 7.88639 9.77429 8.03827 9.77429 8.22389ZM15.332 9.59414C15.5231 9.59414 15.6733 9.44226 15.6733 9.25664C15.6733 6.22589 13.1813 3.76215 10.1157 3.76215C9.92792 3.76215 9.77429 3.914 9.77429 4.09965C9.77429 4.28527 9.92792 4.43715 10.1157 4.43715C12.8057 4.43715 14.9906 6.60051 14.9906 9.25664C14.9906 9.44226 15.1442 9.59414 15.332 9.59414Z" fill="#161C35"/>
<path d="M12.9047 9.25661C12.9047 9.44223 13.0583 9.59411 13.2461 9.59411C13.4339 9.59411 13.5875 9.44223 13.5875 9.25661C13.5875 7.36324 12.0308 5.82424 10.1157 5.82424C9.9279 5.82424 9.77427 5.97612 9.77427 6.16174C9.77427 6.35074 9.9279 6.49924 10.1157 6.49924C11.6553 6.49924 12.9047 7.73786 12.9047 9.25661ZM10.1157 1.69998C9.9279 1.69998 9.77427 1.85186 9.77427 2.03748C9.77427 2.22312 9.9279 2.37498 10.1157 2.37498C13.9562 2.37498 17.0798 5.46312 17.0798 9.25661C17.0798 9.44223 17.23 9.59411 17.4212 9.59411C17.6089 9.59411 17.7626 9.44223 17.7626 9.25661C17.7626 5.0885 14.3317 1.69998 10.1157 1.69998ZM13.4509 12.8139L13.0037 13.0535C12.2493 13.4619 11.6622 14.5812 10.7312 13.7375L8.30011 11.3L6.20004 9.25661C5.14495 7.92348 6.32635 7.60623 6.73941 6.85699L6.98179 6.41825C7.25489 5.91873 7.35388 5.35849 7.27196 4.79823C7.19345 4.23799 6.93741 3.72836 6.52775 3.32336C6.02935 2.83062 5.36707 2.56062 4.66042 2.56062C3.95376 2.56062 3.28807 2.83062 2.78964 3.32336L2.61556 3.49886C1.69383 4.41012 1.588 5.97948 2.31514 7.92348C3.0013 9.77973 4.3839 11.7912 6.20004 13.5867C8.96862 16.3239 12.0513 17.9 14.2634 17.9C15.1373 17.9 15.8781 17.6536 16.4039 17.1339L16.5814 16.9584C17.0764 16.469 17.3529 15.8142 17.3563 15.1089C17.3529 14.4204 17.0695 13.7454 16.5814 13.2627C15.7587 12.4494 14.4717 12.2671 13.4509 12.8139Z" fill="#161C35"/>
</symbol><symbol id="icon-check-mark" viewBox="0 0 14 13">
<path d="M5.79009 10.8857L3.25 8.125V7.75V7C3.25 7.0307 3.25 6.9693 3.25 7C3.25 6.83887 3.25005 6.625 3.25005 6.625V5.875L5.78302 8.31711C5.86985 8.40817 6.01121 8.40711 6.09804 8.31605L11.5 2.5V4.05454V4.75C11.5 5.125 11.5 5.125 11.5 5.125L6.8563 10.0906L6.85731 10.0916L6.10511 10.8847C6.01827 10.9757 5.87692 10.9757 5.79009 10.8857Z" fill="#161C35"/>
</symbol><symbol id="icon-close-filter" viewBox="0 0 16 16">
<path d="M14 2L2 14" stroke="#192144" stroke-width="2" stroke-linecap="round" stroke-linejoin="round"/>
<path d="M2 2L14 14" stroke="#192144" stroke-width="2" stroke-linecap="round" stroke-linejoin="round"/>
</symbol><symbol id="icon-close-flag" viewBox="0 0 24 22">
<g opacity="0.1">
<path d="M21 2.75L3 19.25" stroke="black" stroke-width="1.7" stroke-linecap="round" stroke-linejoin="round"/>
<path d="M3 2.75L21 19.25" stroke="black" stroke-width="1.7" stroke-linecap="round" stroke-linejoin="round"/>
</g>
</symbol><symbol id="icon-close" viewBox="0 0 9 10">
<g clip-path="url(#clip0)">
<path d="M7.875 1.80615L1.125 7.99365" stroke="white" stroke-linecap="round" stroke-linejoin="round"/>
<path d="M1.125 1.80615L7.875 7.99365" stroke="white" stroke-linecap="round" stroke-linejoin="round"/>
</g>

</symbol><symbol id="icon-decorative-arrow-down" viewBox="0 0 8 11">
<path d="M3.64645 10.3536C3.84171 10.5488 4.15829 10.5488 4.35355 10.3536L7.53553 7.17157C7.7308 6.97631 7.7308 6.65973 7.53553 6.46447C7.34027 6.2692 7.02369 6.2692 6.82843 6.46447L4 9.29289L1.17157 6.46447C0.976311 6.2692 0.659728 6.2692 0.464466 6.46447C0.269204 6.65973 0.269204 6.97631 0.464466 7.17157L3.64645 10.3536ZM3.5 0L3.5 10H4.5L4.5 0L3.5 0Z" fill="#CBCED9"/>
</symbol><symbol id="icon-decorative-filter-desktop" viewBox="0 0 23 15">
<rect x="11" width="12" height="3" fill="#192144"/>
<rect x="11" y="12" width="12" height="3" fill="#192144"/>
<rect y="6" width="12" height="3" fill="#192144"/>
<rect x="6" width="3" height="3" fill="#192144"/>
<rect x="6" y="12" width="3" height="3" fill="#192144"/>
<rect x="14" y="6" width="3" height="3" fill="#192144"/>
<rect width="4" height="3" fill="#192144"/>
<rect y="12" width="4" height="3" fill="#192144"/>
<rect x="19" y="6" width="4" height="3" fill="#192144"/>
</symbol><symbol id="icon-decorative-filter" viewBox="0 0 16 10">
<rect x="7.17395" width="7.82609" height="2" fill="#192144"/>
<rect x="7.17383" y="8" width="7.82609" height="2" fill="#192144"/>
<rect y="4" width="7.82609" height="2" fill="#192144"/>
<rect x="3.91309" width="1.95652" height="2" fill="#192144"/>
<rect x="3.91309" y="8" width="1.95652" height="2" fill="#192144"/>
<rect x="9.13037" y="4" width="1.95652" height="2" fill="#192144"/>
<rect width="2.6087" height="2" fill="#192144"/>
<rect y="8" width="2.6087" height="2" fill="#192144"/>
<rect x="12.3914" y="4" width="2.6087" height="2" fill="#192144"/>
</symbol><symbol id="icon-facebook" viewBox="0 0 11 21">
<path d="M7.48786 20.8125H2.12929V11.1375H0V6.3525H2.06643C1.90929 4.185 2.30214 2.6025 3.26071 1.5225C3.71777 1.04316 4.27461 0.66015 4.89562 0.397985C5.51662 0.13582 6.18812 0.000268301 6.86714 0L10.6229 0V4.6125H7.66857C7.49452 5.1766 7.42799 5.76595 7.47214 6.3525H10.615V11.1375H7.47214L7.48786 20.8125ZM3.31571 19.6875H6.28571V10.0125H9.42857V7.5H6.28571V6.93C6.28571 5.43 6.28571 4.0875 7.07143 3.585L7.22071 3.4875H9.42857V1.125H6.89857C6.38444 1.11866 5.87465 1.21553 5.40225 1.40933C4.92986 1.60314 4.50541 1.88955 4.15643 2.25C3.37071 3.1725 3.04857 4.7175 3.29214 6.855L3.37071 7.4775H1.17857V10.0125H3.31571V19.6875Z"/>
</symbol><symbol id="icon-heart"><g clip-path="url(#clip0)"><path fill-rule="evenodd" clip-rule="evenodd" d="M6.32 5.104l.684-1.366c.17-.339.465-.825.882-1.218.41-.388.903-.651 1.497-.651 1.284 0 2.298 1.013 2.298 2.23 0 .925-.424 1.578-1.43 2.574-.259.255-.553.53-.879.835-.848.794-1.904 1.783-3.053 3.104C5.17 9.29 4.115 8.302 3.266 7.508a44.34 44.34 0 01-.878-.835C1.382 5.677.958 5.024.958 4.099c0-1.217 1.014-2.23 2.297-2.23.595 0 1.086.263 1.497.65.417.394.712.88.882 1.219l.685 1.366zm.3 6.334a.395.395 0 01-.601 0C4.793 9.985 3.683 8.946 2.769 8.09 1.187 6.611.192 5.68.192 4.1c0-1.654 1.37-2.994 3.063-2.994 1.226 0 2.083.802 2.608 1.534.199.278.35.547.456.757.133-.263.285-.517.457-.757.524-.733 1.381-1.534 2.607-1.534 1.693 0 3.064 1.34 3.064 2.994 0 1.58-.996 2.511-2.578 3.992-.913.856-2.023 1.895-3.25 3.346z" fill="#192144" opacity=".5"/></g></symbol><symbol id="icon-instagram"><g clip-path="url(#clip0)" fill="#192144"><path d="M12.96 2.033a3.274 3.274 0 012.289.936c.607.597.95 1.407.951 2.252v7.791a3.169 3.169 0 01-.951 2.252 3.275 3.275 0 01-2.289.936H5.04a3.274 3.274 0 01-2.284-.938 3.169 3.169 0 01-.949-2.25V5.221a3.169 3.169 0 01.949-2.25 3.274 3.274 0 012.284-.938h7.92zm0-1.062H5.04a4.356 4.356 0 00-3.055 1.244A4.215 4.215 0 00.72 5.221v7.791c0 1.127.455 2.208 1.265 3.005a4.356 4.356 0 003.055 1.245h7.92a4.357 4.357 0 003.055-1.245 4.216 4.216 0 001.265-3.005V5.221a4.216 4.216 0 00-1.265-3.006A4.356 4.356 0 0012.96.971z"/><path d="M9.007 5.985c.63 0 1.248.184 1.772.529a3.15 3.15 0 011.175 1.408 3.09 3.09 0 01.181 1.813 3.122 3.122 0 01-.873 1.607 3.206 3.206 0 01-1.633.858 3.238 3.238 0 01-1.843-.178 3.18 3.18 0 01-1.431-1.156 3.102 3.102 0 01.395-3.964 3.187 3.187 0 011.035-.68 3.228 3.228 0 011.222-.237zm0-1.063a4.32 4.32 0 00-2.374.705A4.216 4.216 0 005.057 7.51a4.137 4.137 0 00-.246 2.428 4.18 4.18 0 001.167 2.152 4.292 4.292 0 002.186 1.152c.829.162 1.687.08 2.468-.238a4.256 4.256 0 001.917-1.547 4.153 4.153 0 00-.525-5.304c-.396-.39-.866-.7-1.384-.91a4.323 4.323 0 00-1.633-.32zM13.428 5.73a.957.957 0 00.965-.948.957.957 0 00-.965-.95.957.957 0 00-.965.95c0 .524.432.949.965.949z"/></g></symbol><symbol id="icon-location" viewBox="0 0 21 21">
<path d="M10.5 0C6.15169 0 2.625 3.52669 2.625 7.875C2.625 12.9334 6.42846 15.1449 7.26923 16.1538C9.28846 18.5769 9.40257 21 10.5 21C11.5974 21 11.7115 18.5769 13.7308 16.1538C14.5715 15.1449 18.375 12.9334 18.375 7.875C18.375 3.52669 14.8483 0 10.5 0ZM10.5 13.125C7.60069 13.125 5.25 10.7743 5.25 7.875C5.25 4.97569 7.60069 2.625 10.5 2.625C13.3993 2.625 15.75 4.97569 15.75 7.875C15.75 10.7743 13.3993 13.125 10.5 13.125ZM10.5 5.25C9.051 5.25 7.875 6.426 7.875 7.875C7.875 9.324 9.051 10.5 10.5 10.5C11.949 10.5 13.125 9.324 13.125 7.875C13.125 6.426 11.949 5.25 10.5 5.25Z" fill="#FFD74B"/>
<ellipse cx="10.5" cy="7.875" rx="0.875001" ry="0.875" fill="#161C35"/>
</symbol><symbol id="icon-mail-yellow" viewBox="0 0 24 25">
<path fill-rule="evenodd" clip-rule="evenodd" d="M19.1393 16.4663L14.8089 12.5L19.1393 8.53365L18.5488 7.90264L12.25 13.6719L5.95117 7.90264L5.36066 8.53365L9.69108 12.5L5.36066 16.4663L5.95117 17.0974L10.3308 13.0859L12.25 14.8438L14.1691 13.0859L18.5488 17.0974L19.1393 16.4663ZM4.57593 6.25C3.76692 6.25 3.11108 6.94884 3.11108 7.80786V17.1921C3.11108 18.0525 3.7616 18.75 4.57593 18.75H19.924C20.733 18.75 21.3889 18.0512 21.3889 17.1921V7.80786C21.3889 6.94748 20.7383 6.25 19.924 6.25H4.57593Z" fill="#FFD74B"/>
</symbol><symbol id="icon-mail" viewBox="0 0 19 17">
<path d="M2.0166 3.32528L8.7666 7.55572C8.9934 7.69747 9.2868 7.76467 9.582 7.76467C9.8772 7.76467 10.1706 7.69747 10.3974 7.55572L17.1474 3.32528C17.5875 3.04913 18.0033 1.97498 17.196 1.97498H1.9689C1.1616 1.97498 1.5774 3.04913 2.0166 3.32528ZM17.3517 5.63842L10.3974 9.86677C10.0914 10.0537 9.8772 10.0757 9.582 10.0757C9.2868 10.0757 9.0726 10.0537 8.7666 9.86677C8.4606 9.67987 2.3469 5.94082 1.8474 5.63737C1.4964 5.42317 1.5 5.67412 1.5 5.86732V13.525C1.5 13.966 2.0094 14.575 2.4 14.575H16.8C17.1906 14.575 17.7 13.966 17.7 13.525V5.86837C17.7 5.67517 17.7036 5.42422 17.3517 5.63842Z" fill="#161C35"/>
</symbol><symbol id="icon-minus"><path stroke="currentColor" stroke-width="2" d="M0 1h14"/></symbol><symbol id="icon-old-phone" viewBox="0 0 19 17">
<path fill-rule="evenodd" clip-rule="evenodd" d="M9.49995 1.08594C6.7035 1.08594 3.90033 1.55861 2.88322 2.50071C2.03934 3.2823 1.75804 4.66308 1.66321 5.53732C1.66321 5.53732 1.65015 5.62371 1.65015 5.66087C1.65015 6.0037 1.94445 6.27865 2.30427 6.27865C2.34678 6.27865 3.92002 6.15816 4.86851 6.08404C4.89134 6.08091 4.91434 6.07785 4.93716 6.0717C5.29043 6.06248 5.57505 5.79059 5.57505 5.45392L5.57822 4.23679C5.57822 3.85993 5.90214 3.55716 6.3012 3.55716H12.6987C13.0978 3.55716 13.4218 3.8599 13.4218 4.23679L13.425 5.45392C13.425 5.79059 13.7095 6.06248 14.0628 6.0717C14.0854 6.07789 14.1085 6.08091 14.1315 6.08404C15.0801 6.15812 16.6533 6.27865 16.6957 6.27865C17.0553 6.27865 17.3499 6.0037 17.3499 5.66087C17.3499 5.62371 17.3368 5.53732 17.3368 5.53732C17.2419 4.66308 16.9609 3.28234 16.117 2.50071C15.0996 1.55861 12.2964 1.08594 9.49995 1.08594ZM9.49995 9.11752C8.7771 9.11752 8.19164 9.67043 8.19164 10.3531C8.19164 11.0358 8.7771 11.5887 9.49995 11.5887C10.2228 11.5887 10.8082 11.0358 10.8082 10.3531C10.8082 9.67043 10.2228 9.11752 9.49995 9.11752ZM8.51873 6.33731V5.56506C8.51873 5.13881 8.15236 4.79282 7.70106 4.79282C7.24977 4.79282 6.8834 5.13884 6.8834 5.56506V6.33731L2.47095 10.7887C2.16689 11.0698 1.97713 11.462 1.97713 11.8946V13.1333C1.97713 13.816 2.56264 14.3689 3.28545 14.3689H3.61254V15.1412C3.61254 15.5675 3.97895 15.9134 4.43025 15.9134C4.88154 15.9134 5.24792 15.5675 5.24792 15.1412V14.3689H13.752V15.1412C13.752 15.5675 14.1182 15.9134 14.5697 15.9134C15.021 15.9134 15.3873 15.5675 15.3873 15.1412V14.3689H15.7144C16.4373 14.3689 17.0227 13.816 17.0227 13.1333V11.8946C17.0227 11.462 16.833 11.0698 16.5289 10.7887L12.1166 6.33731V5.56506C12.1166 5.13881 11.7502 4.79282 11.2989 4.79282C10.8476 4.79282 10.4812 5.13884 10.4812 5.56506V6.33731H8.51873ZM9.49995 7.88189C10.9456 7.88189 12.1166 8.98777 12.1166 10.3531C12.1166 11.7185 10.9457 12.8244 9.49995 12.8244C8.05426 12.8244 6.88336 11.7185 6.88336 10.3531C6.88336 8.98774 8.05426 7.88189 9.49995 7.88189Z" fill="#FFD74B"/>
</symbol><symbol id="icon-person">
  <path fill="#192144" d="M4.375 3.92978c0 1.52343 1.17775 2.76316 2.625 2.76316s2.625-1.23973 2.625-2.76316c0-1.52342-1.17775-2.76315-2.625-2.76315S4.375 2.40636 4.375 3.92978zm7.2917 8.90352h.5833v-.614c0-2.3696-1.8323-4.29829-4.08333-4.29829H5.83333C3.58167 7.92101 1.75 9.8497 1.75 12.2193v.614h9.9167z" opacity=".1"/>
</symbol><symbol id="icon-plus-more"><rect y="8.308" width="18" height="1.385" rx=".692" fill="#1D2E5B"/><rect x="8.308" y="18" width="18" height="1.385" rx=".692" transform="rotate(-90 8.308 18)" fill="#1D2E5B"/></symbol><symbol id="icon-plus"><path stroke="currentColor" stroke-width="2" d="M7 0v14M0 7h14"/></symbol><symbol id="icon-select-arrow-down" viewBox="0 0 12 16">
<g opacity="0.3">
<path d="M0.63847 5.09805C0.56899 5.17667 0.513866 5.27007 0.476254 5.37289C0.438641 5.47571 0.419281 5.58595 0.419281 5.69727C0.419281 5.8086 0.438641 5.91883 0.476254 6.02165C0.513866 6.12448 0.56899 6.21787 0.63847 6.29649L5.59841 11.9231C5.65363 11.9859 5.71922 12.0357 5.79142 12.0696C5.86363 12.1036 5.94103 12.1211 6.0192 12.1211C6.09737 12.1211 6.17478 12.1036 6.24698 12.0696C6.31918 12.0357 6.38477 11.9859 6.43999 11.9231L11.3999 6.29649C11.6924 5.96472 11.6924 5.42982 11.3999 5.09805C11.1075 4.76628 10.8004 5.04112 10.5079 5.37289L7.9079 8.3364L5.99993 10.4241L1.19995 5.09079C1.19995 5.09079 0.924965 4.76628 0.63847 5.09805Z" fill="black"/>
</g>
</symbol><symbol id="icon-three-dots-for-filter-tablet" viewBox="0 0 30 6">
<circle cx="3" cy="3" r="3" fill="#192144"/>
<circle cx="15" cy="3" r="3" fill="#192144"/>
<circle cx="27" cy="3" r="3" fill="#192144"/>
</symbol><symbol id="icon-three-dots-for-filter" viewBox="0 0 17 3">
<circle cx="1.5" cy="1.5" r="1.5" fill="#192144"/>
<circle cx="8.5" cy="1.5" r="1.5" fill="#192144"/>
<circle cx="15.5" cy="1.5" r="1.5" fill="#192144"/>
</symbol><symbol id="icon-vkontakte" viewBox="0 0 23 12">
<path d="M17.7664 11.8331C17.219 11.8207 16.6854 11.6573 16.2232 11.3606C15.7407 11.031 15.2975 10.6459 14.9026 10.2132C14.5761 9.88315 14.0345 9.32815 13.8268 9.32815C13.619 9.32815 13.4706 10.0181 13.478 10.5056C13.4812 10.8422 13.3564 11.167 13.1293 11.4131C12.8712 11.6263 12.5561 11.7569 12.2242 11.7881H10.7997C8.75222 11.7426 6.79178 10.9425 5.28708 9.53815C2.55676 7.01065 0.21224 2.18065 0.115789 1.97065C0.0237889 1.79521 -0.0147389 1.59616 0.00506792 1.3986C0.0248747 1.20105 0.102128 1.01386 0.227079 0.860649C0.509857 0.622256 0.867951 0.494496 1.23611 0.500649H4.26321H4.35224C4.6027 0.537588 4.84277 0.626997 5.05708 0.763149C5.25875 0.899848 5.42022 1.08899 5.5245 1.31065C5.8444 2.00295 6.2113 2.67204 6.62256 3.31315C7.5945 4.81315 8.02482 5.15815 8.18063 5.23315C8.35396 4.52985 8.40169 3.80091 8.3216 3.08065C8.3476 2.7526 8.29412 2.4231 8.16579 2.12065C8.00289 1.98893 7.80288 1.91278 7.5945 1.90315L7.05289 1.38565C6.94901 0.890649 7.49063 0.463149 7.86902 0.298149C8.62414 0.0589723 9.41638 -0.0376377 10.2061 0.013149H10.7329C11.2686 -0.000953053 11.8041 0.0494006 12.328 0.163149C13.5893 0.433149 13.5448 1.46065 13.4929 2.64565C13.4929 2.99065 13.4558 3.39565 13.4558 3.86065C13.4558 3.97315 13.4558 4.09315 13.4558 4.22065C13.4266 4.54717 13.4492 4.87631 13.5226 5.19565C14.1402 4.67331 14.6604 4.04337 15.0584 3.33565C15.4879 2.66645 15.865 1.96431 16.1861 1.23565C16.2839 1.00519 16.4516 0.812043 16.6649 0.684009C16.8782 0.555974 17.1262 0.499653 17.3732 0.523149H20.5487C20.6425 0.514104 20.7369 0.514104 20.8306 0.523149C21.5726 0.523149 22.0103 0.740649 22.1884 1.16065C22.3664 1.58065 22.3145 2.40565 20.4374 4.61815L19.6955 5.46565C19.336 5.81847 19.0264 6.21976 18.7755 6.65815C19.0565 6.98108 19.3754 7.2682 19.7251 7.51315C20.5778 8.16264 21.3283 8.93894 21.951 9.81565C22.097 9.98613 22.1925 10.1948 22.2266 10.4176C22.2608 10.6405 22.2321 10.8685 22.1439 11.0756C21.9884 11.3051 21.7803 11.4931 21.5375 11.6237C21.2946 11.7542 21.0241 11.8235 20.749 11.8256L17.9371 11.8631L17.7664 11.8331ZM13.8268 8.20315C14.4945 8.20315 15.0732 8.79565 15.689 9.41815C16.0217 9.78534 16.3951 10.1125 16.8019 10.3931C17.1096 10.6 17.4711 10.7096 17.8406 10.7081H17.9148L20.7342 10.6706C20.8732 10.6626 21.0094 10.6269 21.1348 10.5656L21.0606 10.4456C20.499 9.67196 19.8292 8.98479 19.0722 8.40565C18.1893 7.65565 17.7368 7.30315 17.6848 6.72565C17.6329 6.14815 18.0484 5.64565 18.8793 4.69315L19.6213 3.86065C20.2477 3.21479 20.7619 2.46681 21.1422 1.64815C20.9767 1.63823 20.8107 1.63823 20.6451 1.64815H17.4029C17.3443 1.6349 17.2835 1.6349 17.2248 1.64815C16.8814 2.44423 16.4719 3.20947 16.0006 3.93565C14.5984 6.05065 13.938 6.33565 13.4706 6.33565C13.3257 6.33565 13.183 6.29959 13.0551 6.23065C12.3132 5.80315 12.3132 4.85065 12.3577 4.16065C12.3577 4.04815 12.3577 3.93565 12.3577 3.83815C12.3577 3.35065 12.3577 2.93065 12.3948 2.57065C12.4542 1.31065 12.3948 1.30315 12.1129 1.23565C11.6586 1.14491 11.1958 1.10467 10.7329 1.11565H10.221C9.74988 1.10581 9.27872 1.13088 8.81127 1.19065C8.88206 1.24338 8.94459 1.30659 8.99676 1.37815C9.30278 1.8659 9.4554 2.43595 9.4345 3.01315C9.53095 4.25065 9.47902 5.86315 8.69256 6.25315C8.5533 6.31903 8.40115 6.35235 8.2474 6.35065C7.5574 6.35065 6.87482 5.69065 5.70998 3.90565C5.26298 3.22218 4.86383 2.50794 4.51547 1.76815L4.45611 1.69315C4.38118 1.65454 4.30126 1.62677 4.21869 1.61065H1.25095H1.19901C1.63676 2.52565 3.71418 6.57565 6.03643 8.69815C7.34044 9.90918 9.02993 10.6088 10.7997 10.6706H12.1722C12.2422 10.6555 12.3097 10.6303 12.3726 10.5956C12.3726 10.5956 12.3726 10.5956 12.3726 10.5281C12.3726 10.3256 12.3726 8.57815 13.5448 8.27815C13.6356 8.24202 13.7302 8.21685 13.8268 8.20315Z" fill="#192144"/>
</symbol><symbol id="like-button" viewBox="0 0 31 32">
<ellipse cx="15.3192" cy="15.8487" rx="15.3192" ry="15.3561" fill="#F9EAEA"/>
<g clip-path="url(#clip0)">
<path d="M12.2554 10.4741C13.9481 10.4741 15.3192 11.8216 15.3192 13.4838C15.3192 11.8216 16.6903 10.4741 18.383 10.4741C20.0758 10.4741 21.4469 11.8216 21.4469 13.4838C21.4469 15.9892 18.9697 16.8729 15.6194 20.8609C15.5826 20.9047 15.5366 20.9399 15.4847 20.9641C15.4329 20.9882 15.3764 21.0007 15.3192 21.0007C15.262 21.0007 15.2055 20.9882 15.1537 20.9641C15.1018 20.9399 15.0558 20.9047 15.0189 20.8609C11.6686 16.8729 9.19153 15.9892 9.19153 13.4838C9.19153 11.8216 10.5626 10.4741 12.2554 10.4741Z" fill="#F02323"/>
</g>

</symbol><symbol id="menu-close" viewBox="0 0 20 20">
<rect width="23.8906" height="2.0318" rx="1.0159" transform="matrix(0.69604 0.718003 -0.69604 0.718003 2.97168 0.988155)" fill="#CCCCCC"/>
<rect width="23.8906" height="2.0318" rx="1.0159" transform="matrix(0.69604 -0.718003 0.69604 0.718003 0.600586 17.754)" fill="#CCCCCC"/>
</symbol><symbol id="menu-icon-no-js" viewBox="0 0 25 11">
<rect width="25" height="3" rx="1.5" fill="#CCCCCC"/>
<rect y="8" width="25" height="3" rx="1.5" fill="#CCCCCC"/>
</symbol><symbol id="menu-icon" viewBox="0 0 25 11">
<rect width="25" height="3" rx="1.5" fill="white"/>
<rect y="8" width="25" height="3" rx="1.5" fill="white"/>
</symbol><symbol id="minus" viewBox="0 0 14 2">
<line y1="1" x2="14" y2="1" stroke="#CCCCCC" stroke-width="2"/>
</symbol><symbol id="plus" viewBox="0 0 14 14">
<line y1="6.69995" x2="14" y2="6.69995" stroke="#CCCCCC" stroke-width="2"/>
<line x1="6.7" y1="14" x2="6.7" stroke="#CCCCCC" stroke-width="2"/>
</symbol><symbol id="progress-bar">
  <circle id="bar" r="90" cx="100" cy="100" fill="transparent" stroke-dasharray="540" stroke-dashoffset="0"/>
</symbol><symbol id="rectangle-directions-bg-tablet" viewBox="0 0 141 141">
<rect width="141" height="141" rx="20" fill="#E2E5F2"/>
</symbol></svg>